<?xml version="1.0" standalone="no"?><!DOCTYPE svg PUBLIC "-//W3C//DTD SVG 1.1//EN" "http://www.w3.org/Graphics/SVG/1.1/DTD/svg11.dtd"><svg t="1683273975668" class="icon" viewBox="0 0 1024 1024" version="1.1" xmlns="http://www.w3.org/2000/svg" p-id="8634" width="16" height="16" xmlns:xlink="http://www.w3.org/1999/xlink"><path d="M795.733333 894.293333a40.021333 40.021333 0 1 1 42.410667-40.021333 40.618667 40.618667 0 0 1-42.410667 40.021333z m-136.192 0a40.021333 40.021333 0 1 1 42.410667-40.021333 40.618667 40.618667 0 0 1-42.410667 40.021333z m-485.632-79.445333h238.933334v79.445333h-238.933334v-79.445333z m-64.512-95.573333h-71.68v222.805333a48.384 48.384 0 0 0 51.370667 47.786667h851.2a49.578667 49.578667 0 0 0 51.370667-47.786667V719.274667H109.397333z m688.128-509.525334A43.605333 43.605333 0 0 1 750.933333 171.52a43.008 43.008 0 0 1 40.618667-41.216 43.605333 43.605333 0 0 1 44.202667 38.229333 41.813333 41.813333 0 0 1-38.229334 41.216z m-136.192 0a46.592 46.592 0 0 1-39.424-19.114666 37.632 37.632 0 0 1 0-40.021334 43.605333 43.605333 0 0 1 80.042667 17.322667 39.424 39.424 0 0 1-40.618667 41.813333zM173.909333 129.706667h238.933334v80.042666h-238.933334V129.706667zM919.978667 34.133333H110.592a69.888 69.888 0 0 0-71.68 66.901334v204.288h955.733333V101.034667A72.277333 72.277333 0 0 0 919.978667 34.133333zM173.909333 480.341333h238.933334v79.445334h-238.933334v-79.445334z m483.84 0a43.008 43.008 0 0 1 39.424 23.893334 37.034667 37.034667 0 0 1-8.362666 43.008 48.384 48.384 0 0 1-45.994667 9.557333 41.813333 41.813333 0 0 1-27.477333-36.437333 43.008 43.008 0 0 1 42.410666-40.021334z m136.192 0a43.605333 43.605333 0 0 1 44.202667 38.229334 43.008 43.008 0 0 1-40.618667 41.216 43.605333 43.605333 0 0 1-44.202666-38.229334 41.813333 41.813333 0 0 1 40.618666-41.216zM37.717333 655.36H989.866667V384.768H34.133333L37.717333 655.36z" p-id="8635"></path></svg>
