<svg xmlns="http://www.w3.org/2000/svg" xmlns:xlink="http://www.w3.org/1999/xlink" width="16" height="14" viewBox="0 0 16 14" fill="none"><g opacity="1" transform="translate(0 0)  rotate(0 8 6.999705882352941)"><path id="路径 9" fill-rule="evenodd" style="fill:#F9C73F" transform="translate(0 0)  rotate(0 5.052631578947368 2.264705882352941)" opacity="1" d="M10.11,4.53L7.75,0.91C7.38,0.34 6.75,0 6.07,0L2,0C0.9,0 0,0.9 0,2L0,4.53L10.11,4.53Z " /><path id="矩形 4" fill-rule="evenodd" style="fill:#FFD94A" transform="translate(0 2.4699999999999998)  rotate(0 8 5.764705882352941)" opacity="1" d="M2,11.53L14,11.53C15.1,11.53 16,10.63 16,9.53L16,0L0,0L0,9.53C0,10.63 0.9,11.53 2,11.53Z " /></g></svg>