<?xml version="1.0" standalone="no"?><!DOCTYPE svg PUBLIC "-//W3C//DTD SVG 1.1//EN" "http://www.w3.org/Graphics/SVG/1.1/DTD/svg11.dtd"><svg t="1681205596818" class="icon" viewBox="0 0 1024 1024" version="1.1" xmlns="http://www.w3.org/2000/svg" p-id="8635" width="16" height="16" xmlns:xlink="http://www.w3.org/1999/xlink"><path d="M640 0 640 256 896 256Z" p-id="8636"></path><path d="M896 448 64 448 64 64c0-35.328 28.608-64 64-64l448 0 0 320 320 0L896 448z" p-id="8637"></path><path d="M896 960c0 35.328-28.608 64-64 64L128 1024c-35.392 0-64-28.672-64-64l0 0 0-64 832 0L896 960 896 960z" p-id="8638"></path><path d="M64 512l128 0 0 64-128 0 0-64Z" p-id="8639"></path><path d="M0 576l64 0 0 64-64 0 0-64Z" p-id="8640"></path><path d="M64 640l64 0 0 64-64 0 0-64Z" p-id="8641"></path><path d="M128 704l64 0 0 64-64 0 0-64Z" p-id="8642"></path><path d="M0 768l128 0 0 64-128 0 0-64Z" p-id="8643"></path><path d="M384 640 320 640 320 512 256 512 256 832 320 832 320 704 384 704 384 832 448 832 448 512 384 512Z" p-id="8644"></path><path d="M512 576 512 768 512 832 576 832 704 832 704 768 576 768 576 704 704 704 704 640 576 640 576 576 704 576 704 512 512 512Z" p-id="8645"></path><path d="M832 768 832 512 768 512 768 832 832 832Z" p-id="8646"></path><path d="M896 512l64 0 0 320-64 0 0-320Z" p-id="8647"></path></svg>