<svg xmlns="http://www.w3.org/2000/svg">
    <symbol id="icon-python" viewBox="0 0 1024 1024">
        <path d="M325.294817 34.220313C371.953561 10.671542 425.340525 4.016455 476.899168 1.603072c37.590273-3.656641 75.180547 0 112.112625 2.998446 47.316939 6.070025 96.462199 16.966816 135.295731 45.927415 24.133833 18.795137 43.587165 46.585611 43.587165 78.032727-0.585063 80.44611 0 160.89222-0.585063 241.265198 0 35.103757-13.383307 70.719444-40.003657 94.341348-26.108419 22.378645-60.042051 33.275437-93.975683 35.103757H375.025139c-33.933632 0.585063-69.110522 10.238596-94.560746 34.372429-30.935186 29.033733-44.318493 72.620898-43.075235 114.306609 0 39.930524 0.585063 79.861048 0 119.718439-30.935186 0-61.870372 0.658195-92.732425 0-41.246915-1.755188-77.008867-27.790474-99.460646-61.065911-32.763507-50.754182-41.831977-111.893226-44.24536-171.130817 0-9.653533-3.071579-20.477192 1.82832-30.203857-3.656641-6.581954-1.243258-15.138495-1.243258-22.378646 3.071579-56.239144 13.895237-115.549867 49.730323-160.89222a145.534327 145.534327 0 0 1 121.839291-55.580949c114.599141 0.585063 229.198281 0 343.212359 0v-32.032178H267.081086c0-41.685712-0.585063-83.444556-0.585063-125.203401 2.998446-34.372429 30.276991-59.822653 58.798794-74.961148z m35.103757 51.412377c-30.862053 10.896791-36.932078 57.40927-9.653533 75.619344 26.108419 19.892129 68.525459 0 69.110522-32.690374 3.656641-30.203858-31.447116-55.580949-59.383856-42.92897z"></path>
        <path d="M788.591279 256.397843h77.155133c37.736539-3.071579 75.399945 14.553433 100.338239 42.41704 38.906664 44.245361 50.461651 103.702349 57.774934 160.087759v101.215833c-6.655087 55.800347-20.69659 115.184203-61.431575 156.431118-27.351677 26.693482-65.673279 43.002103-103.921748 41.246915-116.719993-0.658195-233.513118 0-350.818174 0v32.105311h249.894872c0 40.588719 0 80.665509 0.585063 121.254228 1.243258 32.178444-22.524911 58.213731-48.633331 73.937289-49.218393 29.106865-108.236585 34.006765-163.525002 38.833531h-65.673279c-57.189871-4.826767-117.378188-10.969924-167.839839-41.831977-31.008319-18.210074-55.288418-50.900448-56.531676-87.320596 0.585063-80.592376-0.585063-161.257885 0.585063-241.923394 0.658195-33.348569 12.213182-67.282201 37.078343-90.319042 27.42481-25.450224 65.088216-37.005211 102.16656-38.760398h255.379834c35.250023 0 71.670171-11.554987 96.023403-37.005211 27.351677-27.278545 39.491727-66.112076 40.734984-104.287412 0.658195-41.246915 0-83.663955 0.658196-126.080994z m-152.043148 601.37124a46.658744 46.658744 0 0 0-26.766615 21.20852c-12.140049 22.451778-0.585063 53.972027 24.353231 61.28531 26.181552 10.969924 58.945059-12.140049 57.116739-40.58872 3.071579-27.351677-28.521803-50.973581-54.703355-41.90511z"></path>
    </symbol>
    <symbol id="icon-shell" viewBox="0 0 1024 1024">
        <path d="M895.488 128H128a61.504 61.504 0 0 0-64 58.624v586.56a61.504 61.504 0 0 0 64 58.688h768a61.504 61.504 0 0 0 64-58.688V186.368A61.504 61.504 0 0 0 895.488 128zM192 538.304l128-117.312-128-117.312 64-58.624 192 176-192 175.872z m512 58.688H448v-58.688h256v58.624z"></path>
    </symbol>
    <symbol id="icon-ansible" viewBox="0 0 1024 1024">
        <path d="M488.892632 248.783158l211.289263 500.490105L381.928421 508.934737l106.964211-260.149895zM863.929263 865.482105L539.073684 114.088421c-18.453895-44.003368-82.571789-44.651789-101.682526 0L80.842105 936.791579h121.490527l141.30021-339.381895 421.254737 327.496421c47.749053 45.040842 125.456842-0.348632 99.041684-59.424z"></path>
    </symbol>
    <symbol id="icon-pm" viewBox="0 0 1024 1024">
        <path d="M852.9 147.8c4.9 0 9.1 4.2 9.1 9.1v167.8c0 4.9-4.2 9.1-9.1 9.1H171.1c-4.9 0-9.1-4.2-9.1-9.1V156.9c0-4.9 4.2-9.1 9.1-9.1h681.8m0-50H171.1c-32.5 0-59.1 26.6-59.1 59.1v167.8c0 32.5 26.6 59.1 59.1 59.1h681.8c32.5 0 59.1-26.6 59.1-59.1V156.9c0-32.5-26.6-59.1-59.1-59.1z"></path>
        <path d="M290.5 214h-60v60h60v-60zM393.5 214h-60v60h60v-60zM806 214H591v60h215v-60zM852.9 417.8c4.9 0 9.1 4.2 9.1 9.1v167.8c0 4.9-4.2 9.1-9.1 9.1H171.1c-4.9 0-9.1-4.2-9.1-9.1V426.9c0-4.9 4.2-9.1 9.1-9.1h681.8m0-50H171.1c-32.5 0-59.1 26.6-59.1 59.1v167.8c0 32.5 26.6 59.1 59.1 59.1h681.8c32.5 0 59.1-26.6 59.1-59.1V426.9c0-32.5-26.6-59.1-59.1-59.1z"></path>
        <path d="M290.5 484h-60v60h60v-60zM393.5 484h-60v60h60v-60zM806 484H591v60h215v-60zM852.9 687.8c4.9 0 9.1 4.2 9.1 9.1v167.8c0 4.9-4.2 9.1-9.1 9.1H171.1c-4.9 0-9.1-4.2-9.1-9.1V696.9c0-4.9 4.2-9.1 9.1-9.1h681.8m0-50H171.1c-32.5 0-59.1 26.6-59.1 59.1v167.8c0 32.5 26.6 59.1 59.1 59.1h681.8c32.5 0 59.1-26.6 59.1-59.1V696.9c0-32.5-26.6-59.1-59.1-59.1z"></path>
        <path d="M290.5 754h-60v60h60v-60zM393.5 754h-60v60h60v-60zM806 754H591v60h215v-60z"></path>
    </symbol>
    <symbol id="icon-vm" viewBox="0 0 1024 1024">
        <path d="M871.04 232.106667l-232.746667-119.466667C652.373333 127.786667 661.333333 148.053333 661.333333 170.666667v682.666666c0 22.613333-8.96 42.88-23.04 58.026667l232.746667-119.68A85.610667 85.610667 0 0 0 917.333333 715.733333V308.053333c0-32-17.92-61.226667-46.293333-75.946666zM234.666667 106.666667H192C144.853333 106.666667 106.666667 144.853333 106.666667 192v640c0 47.146667 38.186667 85.333333 85.333333 85.333333h42.666667c47.146667 0 85.333333-38.186667 85.333333-85.333333V192c0-47.146667-38.186667-85.333333-85.333333-85.333333z m-10.666667 704h-21.333333c-17.706667 0-32-14.293333-32-32S184.96 746.666667 202.666667 746.666667h21.333333c17.706667 0 32 14.293333 32 32s-14.293333 32-32 32z m0-128h-21.333333c-17.706667 0-32-14.293333-32-32S184.96 618.666667 202.666667 618.666667h21.333333c17.706667 0 32 14.293333 32 32s-14.293333 32-32 32z m0-128h-21.333333c-17.706667 0-32-14.293333-32-32S184.96 490.666667 202.666667 490.666667h21.333333c17.706667 0 32 14.293333 32 32s-14.293333 32-32 32z m47.786667-225.066667h-20.48V270.933333c0-5.333333 0.213333-12.16 0.853333-20.48h-0.426667c-1.28 6.186667-2.346667 10.453333-2.986666 12.373334l-23.893334 66.773333h-16.426666l-24.106667-66.133333c-0.64-1.493333-1.706667-5.973333-2.986667-13.013334h-0.853333c0.64 8.106667 0.853333 16.213333 0.853333 24.533334v54.826666h-18.56v-96.853333h30.08l20.906667 58.453333c1.706667 4.906667 2.986667 9.386667 3.626667 13.653334h0.426666c1.28-5.333333 2.56-9.813333 4.053334-13.653334l20.906666-58.453333h29.226667v96.64zM512 106.666667h-42.666667c-47.146667 0-85.333333 38.186667-85.333333 85.333333v640c0 47.146667 38.186667 85.333333 85.333333 85.333333h42.666667c47.146667 0 85.333333-38.186667 85.333333-85.333333V192c0-47.146667-38.186667-85.333333-85.333333-85.333333z m-10.666667 704h-21.333333c-17.706667 0-32-14.293333-32-32s14.293333-32 32-32h21.333333c17.706667 0 32 14.293333 32 32s-14.293333 32-32 32z m0-128h-21.333333c-17.706667 0-32-14.293333-32-32s14.293333-32 32-32h21.333333c17.706667 0 32 14.293333 32 32s-14.293333 32-32 32z m0-128h-21.333333c-17.706667 0-32-14.293333-32-32s14.293333-32 32-32h21.333333c17.706667 0 32 14.293333 32 32s-14.293333 32-32 32z m6.186667-225.066667H484.266667l-33.28-96.853333h22.186666l20.906667 68.48c1.066667 3.413333 1.706667 6.613333 1.92 9.6h0.426667c0.426667-2.986667 1.066667-6.4 2.133333-9.813334l20.906667-68.266666h21.546666l-33.493333 96.853333z"></path>
    </symbol>
    <symbol id="icon-switch" viewBox="0 0 1024 1024">
        <path d="M288 746.666667c-17.066667 0-32 14.933333-32 32V853.333333H138.666667c-17.066667 0-32 14.933333-32 32S121.6 917.333333 138.666667 917.333333h149.333333c17.066667 0 32-14.933333 32-32v-106.666666c0-17.066667-14.933333-32-32-32zM437.333333 277.333333c17.066667 0 32-14.933333 32-32v-106.666666c0-17.066667-14.933333-32-32-32S405.333333 121.6 405.333333 138.666667v106.666666c0 17.066667 14.933333 32 32 32zM586.666667 277.333333c17.066667 0 32-14.933333 32-32v-106.666666c0-17.066667-14.933333-32-32-32S554.666667 121.6 554.666667 138.666667v106.666666c0 17.066667 14.933333 32 32 32zM586.666667 746.666667c-17.066667 0-32 14.933333-32 32v106.666666c0 17.066667 14.933333 32 32 32s32-14.933333 32-32v-106.666666c0-17.066667-14.933333-32-32-32zM885.333333 853.333333H768v-74.666666c0-17.066667-14.933333-32-32-32s-32 14.933333-32 32v106.666666c0 17.066667 14.933333 32 32 32h149.333333c17.066667 0 32-14.933333 32-32s-14.933333-32-32-32zM832 341.333333H192c-46.933333 0-85.333333 38.4-85.333333 85.333334v170.666666c0 46.933333 38.4 85.333333 85.333333 85.333334h640c46.933333 0 85.333333-38.4 85.333333-85.333334v-170.666666c0-46.933333-38.4-85.333333-85.333333-85.333334zM245.333333 597.333333c-17.066667 0-32-14.933333-32-32s14.933333-32 32-32 32 14.933333 32 32-14.933333 32-32 32z m0-106.666666c-17.066667 0-32-14.933333-32-32s14.933333-32 32-32 32 14.933333 32 32-14.933333 32-32 32z m106.666667 106.666666c-17.066667 0-32-14.933333-32-32s14.933333-32 32-32 32 14.933333 32 32-14.933333 32-32 32z m0-106.666666c-17.066667 0-32-14.933333-32-32s14.933333-32 32-32 32 14.933333 32 32-14.933333 32-32 32zM437.333333 746.666667c-17.066667 0-32 14.933333-32 32v106.666666c0 17.066667 14.933333 32 32 32s32-14.933333 32-32v-106.666666c0-17.066667-14.933333-32-32-32z"></path>
    </symbol>
    <symbol id="icon-router" viewBox="0 0 1024 1024">
        <path d="M352 435.2h320v48H352z"></path>
        <path d="M896 435.2h-96v48h64l28.8 73.6H768V144h-64v412.8H320V144H256v412.8H131.2l28.8-73.6h64v-48H131.2L64 556.8V883.2h896V556.8l-64-121.6z m0 380.8H128v-192h768v192z"></path>
        <path d="M768 688h64v64h-64zM640 688h64v64h-64zM512 688h64v64h-64z"></path>
    </symbol>
    <symbol id="icon-firewall" viewBox="0 0 1024 1024">
        <path d="M160 224a64 64 0 0 1 64-64h576a64 64 0 0 1 64 64v576a64 64 0 0 1-64 64H224a64 64 0 0 1-64-64V224z m256 480H224v96h192v-96z m384 0H480v96h320v-96z m0-160h-192v96h192v-96z m-256 0H224v96h320v-96z m256-160H480v96h320v-96zM224 480h192v-96H224v96z m320-256H224v96h320V224z m256 0h-192v96h192V224z"></path>
    </symbol>
    <symbol id="icon-sq" viewBox="0 0 1024 1024">
        <path d="M900.100352 78.336a51.2 51.2 0 0 1 41.472 51.2v479.744a212.48 212.48 0 0 1-19.968 92.16 452.608 452.608 0 0 1-58.368 90.112 665.6 665.6 0 0 1-82.432 82.944c-29.8496 25.088-61.3376 48.128-94.208 69.12a624.64 624.64 0 0 1-92.672 51.2A363.008 363.008 0 0 1 512.004352 1024h-20.48a378.88 378.88 0 0 1-80.896-27.648 772.096 772.096 0 0 1-95.232-51.2 857.088 857.088 0 0 1-95.232-71.168 619.008 619.008 0 0 1-84.992-82.432A429.056 429.056 0 0 1 74.244352 701.44 204.8 204.8 0 0 1 51.204352 608.256V128.512a51.2 51.2 0 0 1 41.472-51.2L497.156352 0l402.944 78.336z m-402.432-2.56h-5.12L140.804352 137.728v329.216h358.4l-1.536-391.168z m354.304 391.168H497.668352v468.48a489.472 489.472 0 0 0 74.24-25.6 605.696 605.696 0 0 0 79.36-39.424 676.352 676.352 0 0 0 75.264-51.2 400.896 400.896 0 0 0 64-60.928 296.96 296.96 0 0 0 44.544-67.584 163.328 163.328 0 0 0 16.896-71.168V466.944z"></path>
    </symbol>
    <symbol id="icon-system" viewBox="0 0 1024 1024">
        <path d="M812.495 930.219H216.5c-64.239 0-116.5-52.262-116.5-116.501V217.516c0-64.239 52.262-116.5 116.5-116.5h595.996c64.238 0 116.5 52.262 116.5 116.5v596.202c-0.001 64.239-52.263 116.501-116.501 116.501zM216.5 165.015c-28.949 0-52.5 23.552-52.5 52.5v596.202c0 28.949 23.552 52.501 52.5 52.501h595.996c28.948 0 52.5-23.552 52.5-52.501V217.516c0-28.949-23.552-52.5-52.5-52.5H216.5z"></path>
        <path d="M257 531h64v277h-64zM399 439h64v367h-64zM551.022 351.197l63.999-0.41 2.912 455.007-64 0.41zM699 591h64v216.998h-64zM884.174 145.999H157.999c-6.6 0-12 5.4-12 12V270.74c0 6.6 5.4 12 12 12h726.175c6.6 0 12-5.4 12-12V157.999c0-6.6-5.4-12-12-12zM232 240c-19.882 0-36-16.118-36-36s16.118-36 36-36 36 16.118 36 36-16.118 36-36 36z m109-2c-19.882 0-36-16.118-36-36s16.118-36 36-36 36 16.118 36 36-16.118 36-36 36z m112.5-1.6c-19.882 0-36-16.118-36-36s16.118-36 36-36 36 16.118 36 36-16.118 36-36 36z"></path>
    </symbol>
    <symbol id="icon-hostOther" viewBox="0 0 1024 1024">
        <path d="M529.2 820.4c-37.4 0-74.8-9.1-104-27.3L240.5 677.7c-10.3-6.4-13.4-20-7-30.3s20-13.4 30.3-7l184.7 115.4c43.7 27.3 117.6 27.3 161.3 0l184.7-115.4c10.3-6.4 23.9-3.3 30.3 7 6.4 10.3 3.3 23.9-7 30.3L633.2 793.1c-29.2 18.2-66.6 27.3-104 27.3z"></path>
        <path d="M529.2 662.8c-37.4 0-74.8-9.1-104-27.3L240.5 520.1c-31.3-19.6-48.6-46.7-48.6-76.4s17.3-56.8 48.6-76.4l184.7-115.4c58.3-36.4 149.7-36.5 208 0l184.7 115.4c31.3 19.6 48.6 46.7 48.6 76.4s-17.3 56.8-48.6 76.4L633.2 635.5c-29.2 18.2-66.6 27.3-104 27.3z m0-394.1c-29.4 0-58.8 6.8-80.7 20.5L263.9 404.7c-18 11.2-27.9 25.1-27.9 39s9.9 27.8 27.9 39l184.7 115.4c43.7 27.3 117.6 27.3 161.3 0l184.7-115.4c18-11.2 27.9-25.1 27.9-39s-9.9-27.8-27.9-39L609.9 289.3c-21.9-13.7-51.3-20.6-80.7-20.6z"></path>
    </symbol>
    <symbol id="icon-hostIcon" viewBox="0 0 1024 1024">
        <path d="M452.29 475.94H230.57c-106.78 0-193.67-86.88-193.67-193.66v-28.07c0-106.78 86.89-193.66 193.67-193.66h28.07c106.78 0 193.65 86.88 193.65 193.66v221.73zM230.57 137.88c-64.16 0-116.35 52.18-116.35 116.33v28.07c0 64.15 52.18 116.33 116.35 116.33h144.39v-144.4c0-64.15-52.18-116.33-116.32-116.33h-28.07zM794.33 475.94H572.61V254.22c0-106.78 86.89-193.66 193.67-193.66h28.04C901.11 60.56 988 147.44 988 254.22v28.07c0 106.77-86.89 193.65-193.67 193.65z m-144.39-77.32h144.39c64.16 0 116.35-52.18 116.35-116.33v-28.07c0-64.15-52.18-116.33-116.35-116.33h-28.04c-64.16 0-116.35 52.18-116.35 116.33v144.4zM258.64 982.29h-28.07c-106.78 0-193.67-86.88-193.67-193.67v-28.05c0-106.78 86.89-193.66 193.67-193.66h221.72v221.72c0 106.78-86.87 193.66-193.65 193.66z m-28.07-338.06c-64.16 0-116.35 52.18-116.35 116.33v28.05c0 64.15 52.18 116.35 116.35 116.35h28.07c64.14 0 116.32-52.19 116.32-116.35V644.23H230.57zM794.33 982.29h-28.04c-106.78 0-193.67-86.88-193.67-193.67V566.9h221.72C901.11 566.9 988 653.78 988 760.56v28.05c0 106.8-86.89 193.68-193.67 193.68zM649.94 644.23v144.39c0 64.15 52.18 116.35 116.35 116.35h28.04c64.16 0 116.35-52.19 116.35-116.35v-28.05c0-64.15-52.18-116.33-116.35-116.33H649.94v-0.01z"></path>
    </symbol>
    <symbol id="icon-task-job" viewBox="0 0 1024 1024">
        <path d="M885.333333 853.333333H170.666667V384h714.666666c17.066667 0 32-14.933333 32-32s-14.933333-32-32-32H170.666667V170.666667h682.666666v714.666666c0 17.066667 14.933333 32 32 32s32-14.933333 32-32V149.333333c0-23.466667-19.2-42.666667-42.666666-42.666666H149.333333c-23.466667 0-42.666667 19.2-42.666666 42.666666v725.333334c0 23.466667 19.2 42.666667 42.666666 42.666666h736c17.066667 0 32-14.933333 32-32s-14.933333-32-32-32z"></path>
        <path d="M565.333333 213.333333c-17.066667 0-32 14.933333-32 32s14.933333 32 32 32h21.333334c17.066667 0 32-14.933333 32-32s-14.933333-32-32-32h-21.333334zM416 213.333333c-17.066667 0-32 14.933333-32 32s14.933333 32 32 32h21.333333c17.066667 0 32-14.933333 32-32s-14.933333-32-32-32h-21.333333zM266.666667 213.333333c-17.066667 0-32 14.933333-32 32s14.933333 32 32 32h21.333333c17.066667 0 32-14.933333 32-32s-14.933333-32-32-32h-21.333333zM469.333333 595.2c12.8 12.8 12.8 32 0 44.8l-104.533333 106.666667c-12.8 12.8-32 12.8-44.8 0-12.8-12.8-12.8-32 0-44.8l104.533333-104.533334c12.8-12.8 32-12.8 44.8-2.133333z"></path>
        <path d="M469.333333 642.133333c-12.8 12.8-32 12.8-44.8 0L320 537.6c-12.8-12.8-12.8-32 0-44.8 12.8-12.8 32-12.8 44.8 0L469.333333 597.333333c12.8 10.666667 12.8 32 0 44.8zM629.333333 682.666667h-106.666666c-17.066667 0-32 14.933333-32 32s14.933333 32 32 32h106.666666c17.066667 0 32-14.933333 32-32s-14.933333-32-32-32z"></path>
    </symbol>
    <symbol id="icon-task-basic" viewBox="0 0 1024 1024">
        <path d="M831.825474 63.940169H191.939717C121.2479 63.940169 63.940169 121.2479 63.940169 191.939717v639.885757C63.940169 902.517291 121.2479 959.825022 191.939717 959.825022h639.885757c70.691817 0 127.999548-57.307731 127.999548-127.999548V191.939717C959.825022 121.2479 902.517291 63.940169 831.825474 63.940169zM895.884854 831.998871A63.835408 63.835408 0 0 1 831.912173 895.884854H192.087827c-17.112123 0-33.270563-6.574639-45.372232-18.67631S127.880338 849.110994 127.880338 831.998871V192.001129A64.236389 64.236389 0 0 1 192.087827 127.880338h639.824346A64.037705 64.037705 0 0 1 895.884854 192.001129v639.997742z"></path>
        <path d="M791.998335 351.851551h-255.999097a31.970084 31.970084 0 0 0 0 63.940169h255.999097a31.970084 31.970084 0 0 0 0-63.940169zM791.998335 607.973471h-255.999097a31.970084 31.970084 0 0 0 0 63.940169h255.999097a31.970084 31.970084 0 0 0 0-63.940169zM344.001722 527.997686c-61.855792 0-111.985607 50.144265-111.985607 111.985606s50.144265 111.985607 111.985607 111.985607 111.985607-50.144265 111.985606-111.985607-50.129815-111.985607-111.985606-111.985606z m33.982213 145.982269a48.045438 48.045438 0 1 1 14.088511-33.982213 47.745605 47.745605 0 0 1-14.088511 33.985826zM417.395643 297.394035L311.999125 402.78694 270.6078 361.392003a31.970084 31.970084 0 1 0-45.213286 45.213285l63.997968 64.001581a31.970084 31.970084 0 0 0 45.213286 0l127.999548-127.999549a31.970084 31.970084 0 0 0-45.209673-45.213285z"></path>
    </symbol>
    <symbol id="icon-task-param" viewBox="0 0 1024 1024">
        <path d="M691.2 844.8c0-87.04 71.68-158.72 158.72-158.72 87.04 0 158.72 71.68 158.72 158.72s-71.68 158.72-158.72 158.72c-87.04 0-158.72-71.68-158.72-158.72z m87.04 0c0 40.96 30.72 71.68 71.68 71.68 40.96 0 71.68-30.72 71.68-71.68 0-40.96-30.72-71.68-71.68-71.68-40.96 0-71.68 30.72-71.68 71.68z"></path>
        <path d="M56.32 885.76H691.2c20.48 0 35.84-15.36 35.84-35.84 0-20.48-15.36-35.84-35.84-35.84H56.32c-20.48 0-35.84 15.36-35.84 35.84-5.12 20.48 15.36 35.84 35.84 35.84z m117.76-547.84c-87.04 0-158.72-71.68-158.72-158.72S87.04 20.48 174.08 20.48 332.8 92.16 332.8 179.2s-71.68 158.72-158.72 158.72z m0-230.4c-35.84 0-71.68 35.84-71.68 71.68s30.72 71.68 71.68 71.68 71.68-30.72 71.68-71.68-30.72-71.68-71.68-71.68z"></path>
        <path d="M967.68 225.28H337.92c-20.48 0-35.84-15.36-35.84-35.84s15.36-35.84 35.84-35.84H972.8c20.48 0 35.84 15.36 35.84 35.84s-20.48 35.84-40.96 35.84zM542.72 701.44c-107.52 0-189.44-87.04-189.44-189.44s87.04-189.44 189.44-189.44S732.16 409.6 732.16 512s-81.92 189.44-189.44 189.44z m0-276.48c-46.08 0-87.04 40.96-87.04 87.04s40.96 87.04 87.04 87.04c46.08 0 87.04-40.96 87.04-87.04s-35.84-87.04-87.04-87.04z"></path>
        <path d="M977.92 558.08H706.56c-20.48 0-35.84-15.36-35.84-35.84s15.36-35.84 35.84-35.84h271.36c20.48 0 35.84 15.36 35.84 35.84s-15.36 35.84-35.84 35.84z m-588.8 0H46.08c-20.48 0-35.84-15.36-35.84-35.84S25.6 486.4 46.08 486.4h343.04c20.48 0 35.84 15.36 35.84 35.84s-15.36 35.84-35.84 35.84z"></path>
    </symbol>
</svg>
